# xmcd CD database file
#
# Track frame offsets:
#	150
#	24453
#	42549
#	64576
#	82074
#	104527
#	124134
#	137305
#	152477
#	172042
#	193946
#	211827
#	227596
#	255226
#	270560
#	285248
#	295939
#
# Disc length: 4204 seconds
#
# Revision: 0
# Processed by: cddbd v1.5.1PL0 Copyright (c) Steve Scherf et al.
# Submitted via: CDex 1.51
#
DISCID=ec106a11
DTITLE=Various Artist - The all time greatest blues songs
DYEAR=2001
DGENRE=Blues
TTITLE0=Mannish Boys
TTITLE1=Cold Shot
TTITLE2=More than one way home
TTITLE3=Nee your love so bad
TTITLE4=Tick Tock
TTITLE5=Death Letter
TTITLE6=Trouble in mind
TTITLE7=Tuff enuff
TTITLE8=Love rears its ugly head
TTITLE9=Brightest star
TTITLE10=Runnin' blue
TTITLE11=She cayght the kathy and left me a mule to ride
TTITLE12=Still got the blues
TTITLE13=Johnny B. Goode
TTITLE14=I'd ratter go blind
TTITLE15=After midnight
TTITLE16=Right next door
EXTD=YEAR: 2001
EXTT0=
EXTT1=
EXTT2=
EXTT3=
EXTT4=
EXTT5=
EXTT6=
EXTT7=
EXTT8=
EXTT9=
EXTT10=
EXTT11=
EXTT12=
EXTT13=
EXTT14=
EXTT15=
EXTT16=
PLAYORDER=
